<svg id="Layer_1" data-name="Layer 1" xmlns="http://www.w3.org/2000/svg" viewBox="0 0 1366 683"><defs><style>.cls-1,.cls-2,.cls-7{fill:#969696;}.cls-2{font-size:28.11px;font-family:Roboto-Medium, Roboto;letter-spacing:0.15em;}.cls-3{font-size:170.01px;fill:#a5d23c;font-family:Roboto-Light, Roboto;letter-spacing:0.15em;}.cls-4,.cls-5,.cls-6{font-family:Roboto-Black, Roboto;}.cls-5{letter-spacing:0.16em;}.cls-6{letter-spacing:0.09em;}.cls-7{font-size:70.92px;font-family:Roboto-Regular, Roboto;letter-spacing:0.15em;}.cls-8{letter-spacing:0.11em;}.cls-9{letter-spacing:0.14em;}.cls-10{letter-spacing:0.15em;}.cls-11{letter-spacing:0.14em;}.cls-12{letter-spacing:0.15em;}.cls-13{letter-spacing:0.08em;}.cls-14{letter-spacing:0.14em;}</style></defs><title>company_logo_2020</title><circle class="cls-1" cx="585.73" cy="74.78" r="23.28"/><circle class="cls-1" cx="771.97" cy="74.78" r="23.28"/><path class="cls-1" d="M487.79,172.72,513,147.47a4,4,0,0,0,0-5.7l-18.24-18.24a6.1,6.1,0,0,1-1.71-5.24l7.73-49.64a5.85,5.85,0,0,0-9.63-5.52L438,110.45a15.86,15.86,0,0,0-2,24.14l38.12,38.13A9.65,9.65,0,0,0,487.79,172.72Z"/><path class="cls-1" d="M876.84,172.72,851.6,147.47a4,4,0,0,1,0-5.7l18.24-18.24a6.1,6.1,0,0,0,1.71-5.24l-7.74-49.64a5.86,5.86,0,0,1,9.64-5.52l53.16,47.32a15.86,15.86,0,0,1,2,24.14l-38.13,38.13A9.64,9.64,0,0,1,876.84,172.72Z"/><path class="cls-1" d="M688.41,291.21l55.9-55.89a24.48,24.48,0,0,1,15.18-7.09l8.61-.76a16.81,16.81,0,0,1,18.06,14l.58,3.5a27.47,27.47,0,0,1-3.8,19l-35.11,56.17c-4.91,7.86,3.67,17.19,11.92,12.94l123.57-63.66a30.77,30.77,0,0,0,6.85-49.91l-98.42-91.4a42.94,42.94,0,0,0-61.53,3.19l-42.64,48.74a12.26,12.26,0,0,1-18.45,0l-42.64-48.74A42.94,42.94,0,0,0,565,128.15l-98.43,91.4a30.78,30.78,0,0,0,6.85,49.91L597,333.13c8.24,4.24,16.83-5.09,11.92-12.95l-34.82-55.71a27.5,27.5,0,0,1-3.65-20l.53-2.65a17.85,17.85,0,0,1,19.13-14.28l5.88.53a28.12,28.12,0,0,1,17.35,8.13l55,55A14.21,14.21,0,0,0,688.41,291.21Z"/><text class="cls-2" transform="translate(850.54 334.88)">TM</text><text class="cls-3" transform="translate(53.69 523.43) scale(1.13 1)">TEAM<tspan class="cls-4" x="548.2" y="0">M</tspan><tspan class="cls-5" x="722.71" y="0">E</tspan><tspan class="cls-6" x="845" y="0">T</tspan><tspan class="cls-4" x="967.71" y="0">A</tspan></text><text class="cls-7" transform="translate(85.73 618.28)">ESPO<tspan class="cls-8" x="218.47" y="0">R</tspan><tspan class="cls-9" x="271.46" y="0">T</tspan><tspan class="cls-10" x="323.97" y="0">S SE</tspan><tspan class="cls-11" x="509.99" y="0">R</tspan><tspan class="cls-12" x="565.1" y="0">VICE COM</tspan><tspan class="cls-13" x="971.64" y="0">P</tspan><tspan class="cls-10" x="1022.59" y="0">A</tspan><tspan class="cls-14" x="1078.07" y="0">N</tspan><tspan class="cls-10" x="1137.67" y="0">Y</tspan></text></svg>